<svg xmlns="http://www.w3.org/2000/svg" width="64" height="64" viewBox="0 0 64 64" shape-rendering="crispEdges"><rect x="0" y="0" width="8" height="8" fill="#0c6633"/><rect x="8" y="0" width="8" height="8" fill="#0e5730"/><rect x="16" y="0" width="8" height="8" fill="#0a4f27"/><rect x="24" y="0" width="8" height="8" fill="#0a4f27"/><rect x="32" y="0" width="8" height="8" fill="#0a4f27"/><rect x="40" y="0" width="8" height="8" fill="#0e5730"/><rect x="48" y="0" width="8" height="8" fill="#114f22"/><rect x="56" y="0" width="8" height="8" fill="#0e5730"/><rect x="0" y="8" width="8" height="8" fill="#062d16"/><rect x="8" y="8" width="8" height="8" fill="#0c6633"/><rect x="16" y="8" width="8" height="8" fill="#0e5730"/><rect x="24" y="8" width="8" height="8" fill="#0e5730"/><rect x="32" y="8" width="8" height="8" fill="#0e5730"/><rect x="40" y="8" width="8" height="8" fill="#0e5730"/><rect x="48" y="8" width="8" height="8" fill="#062d16"/><rect x="56" y="8" width="8" height="8" fill="#0a4f27"/><rect x="0" y="16" width="8" height="8" fill="#062d16"/><rect x="8" y="16" width="8" height="8" fill="#0e5730"/><rect x="16" y="16" width="8" height="8" fill="#062d16"/><rect x="24" y="16" width="8" height="8" fill="#0e5730"/><rect x="32" y="16" width="8" height="8" fill="#0a4f27"/><rect x="40" y="16" width="8" height="8" fill="#0d5c2e"/><rect x="48" y="16" width="8" height="8" fill="#0d5c2e"/><rect x="56" y="16" width="8" height="8" fill="#0e5730"/><rect x="0" y="24" width="8" height="8" fill="#114f22"/><rect x="8" y="24" width="8" height="8" fill="#0c6633"/><rect x="16" y="24" width="8" height="8" fill="#0d5c2e"/><rect x="24" y="24" width="8" height="8" fill="#0a4f27"/><rect x="32" y="24" width="8" height="8" fill="#0c6633"/><rect x="40" y="24" width="8" height="8" fill="#114f22"/><rect x="48" y="24" width="8" height="8" fill="#0e5730"/><rect x="56" y="24" width="8" height="8" fill="#0d5c2e"/><rect x="0" y="32" width="8" height="8" fill="#0d5c2e"/><rect x="8" y="32" width="8" height="8" fill="#0a4f27"/><rect x="16" y="32" width="8" height="8" fill="#0c6633"/><rect x="24" y="32" width="8" height="8" fill="#0c6633"/><rect x="32" y="32" width="8" height="8" fill="#0a4f27"/><rect x="40" y="32" width="8" height="8" fill="#114f22"/><rect x="48" y="32" width="8" height="8" fill="#0e5730"/><rect x="56" y="32" width="8" height="8" fill="#114f22"/><rect x="0" y="40" width="8" height="8" fill="#114f22"/><rect x="8" y="40" width="8" height="8" fill="#062d16"/><rect x="16" y="40" width="8" height="8" fill="#0d5c2e"/><rect x="24" y="40" width="8" height="8" fill="#062d16"/><rect x="32" y="40" width="8" height="8" fill="#0d5c2e"/><rect x="40" y="40" width="8" height="8" fill="#0a4f27"/><rect x="48" y="40" width="8" height="8" fill="#0a4f27"/><rect x="56" y="40" width="8" height="8" fill="#0e5730"/><rect x="0" y="48" width="8" height="8" fill="#062d16"/><rect x="8" y="48" width="8" height="8" fill="#114f22"/><rect x="16" y="48" width="8" height="8" fill="#0a4f27"/><rect x="24" y="48" width="8" height="8" fill="#062d16"/><rect x="32" y="48" width="8" height="8" fill="#c9a227"/><rect x="40" y="48" width="8" height="8" fill="#0d5c2e"/><rect x="48" y="48" width="8" height="8" fill="#0c6633"/><rect x="56" y="48" width="8" height="8" fill="#0e5730"/><rect x="0" y="56" width="8" height="8" fill="#114f22"/><rect x="8" y="56" width="8" height="8" fill="#062d16"/><rect x="16" y="56" width="8" height="8" fill="#062d16"/><rect x="24" y="56" width="8" height="8" fill="#0d5c2e"/><rect x="32" y="56" width="8" height="8" fill="#0d5c2e"/><rect x="40" y="56" width="8" height="8" fill="#0c6633"/><rect x="48" y="56" width="8" height="8" fill="#062d16"/><rect x="56" y="56" width="8" height="8" fill="#062d16"/></svg>